<svg xmlns="http://www.w3.org/2000/svg" viewBox="0 0 64 64">
  <rect x="2" y="2" width="60" height="60" rx="15" fill="#1B4332"/>
  <g fill="none" stroke="#E8C77E" stroke-width="3" stroke-linecap="round">
    <path d="M32,48 C32,36 32,24 32,11"/>
    <path d="M32,48 C28,38 22,28 16,15"/>
    <path d="M32,48 C36,38 42,28 48,15"/>
    <path d="M32,48 C24,40 15,32 8,23"/>
    <path d="M32,48 C40,40 49,32 56,23"/>
  </g>
  <g fill="#E8C77E">
    <ellipse cx="32" cy="11" rx="2.6" ry="4.4"/>
    <ellipse cx="16" cy="15" rx="2.4" ry="4.2" transform="rotate(-28 16 15)"/>
    <ellipse cx="48" cy="15" rx="2.4" ry="4.2" transform="rotate(28 48 15)"/>
    <ellipse cx="8" cy="23" rx="2.2" ry="4" transform="rotate(-42 8 23)"/>
    <ellipse cx="56" cy="23" rx="2.2" ry="4" transform="rotate(42 56 23)"/>
  </g>
  <rect x="22" y="45" width="20" height="5" rx="2.5" fill="#C68A2E"/>
</svg>
